<svg width="400" height="400" viewBox="0 0 400 400" fill="none" xmlns="http://www.w3.org/2000/svg">
<path d="M236.125 78.7646C220.382 74.073 204.143 72.4864 187.861 74.0491C171.001 75.6668 154.837 80.6065 139.818 88.7297C124.798 96.853 111.818 107.677 101.235 120.902C91.0166 133.673 83.4562 148.132 78.7646 163.876C74.073 179.618 72.4864 195.857 74.0491 212.139C75.6667 228.999 80.6064 245.163 88.7297 260.182C96.853 275.202 107.677 288.183 120.902 298.765C133.673 308.983 148.132 316.544 163.876 321.235C179.62 325.927 195.858 327.514 212.14 325.951C229 324.333 245.164 319.394 260.183 311.27C275.203 303.147 288.183 292.323 298.766 279.098C302.04 275.006 305.04 270.743 307.761 266.317C313.534 256.931 318.047 246.824 321.235 236.124C325.927 220.38 327.514 204.142 325.951 187.86C324.333 171 319.394 154.836 311.27 139.817C303.147 124.797 292.323 111.815 279.098 101.234C266.327 91.0153 251.868 83.455 236.124 78.7633L236.125 78.7646ZM134.008 280.066C134.542 271.231 136.881 260.559 140.958 248.349C142.221 244.566 143.633 240.693 145.186 236.741C146.01 234.644 147.092 232.658 148.403 230.826C155.219 221.303 164.191 215.185 175.126 212.62C183.886 210.565 194.066 210.809 204.565 213.326C211.839 215.069 219.31 217.96 224.992 221.199C214.785 237.345 203.549 252.444 192.054 265.348C180.29 278.554 168.93 288.634 159.2 294.502C148.014 301.248 142.325 300.584 139.929 299.588C137.342 298.511 133.132 294.545 134.008 280.066ZM130.68 157.23C135.294 158.437 140.161 159.374 145.198 159.88C156.044 160.968 166.363 159.91 175.869 156.74C180.746 155.112 185.426 152.921 189.884 150.184C189.658 151.252 189.464 152.322 189.303 153.394C188.276 160.276 188.614 167.308 190.307 174.296C192.678 184.084 197.822 194.001 205.219 203.074C193.784 200.566 182.613 200.448 172.809 202.748C165.809 204.39 159.38 207.26 153.703 211.281C152.818 211.907 151.95 212.564 151.1 213.248C151.532 208.035 151.376 202.87 150.628 197.782C149.17 187.868 145.458 178.182 139.595 168.993C136.872 164.724 133.84 160.803 130.681 157.23L130.68 157.23ZM230.31 212.537C224.859 208.927 218.91 203.565 214.075 197.863C207.093 189.629 202.284 180.654 200.165 171.908C197.508 160.934 198.951 150.109 204.449 139.678C205.4 137.874 206.572 136.196 207.929 134.672C207.935 134.665 207.941 134.658 207.947 134.651C219.711 121.445 231.073 111.365 240.802 105.496C251.987 98.7504 257.676 99.4146 260.072 100.411C262.66 101.487 266.869 105.454 265.994 119.933C265.459 128.768 263.12 139.439 259.043 151.65C255.047 163.616 249.576 176.486 242.779 189.902C238.906 197.549 234.725 205.127 230.311 212.536L230.31 212.537ZM144.643 97.6508C158.462 90.1765 173.329 85.6332 188.83 84.1452C203.806 82.7085 218.743 84.1689 233.228 88.4844C236.99 89.6049 240.67 90.9057 244.265 92.378C241.49 93.5108 238.581 94.9913 235.564 96.8111C224.975 103.197 212.806 113.949 200.374 127.905C199.692 128.67 199.012 129.445 198.332 130.225L198.33 130.222C184.186 145.253 166.651 151.835 146.211 149.787C128.922 148.053 113.687 140.6 104.939 135.444C104.51 135.169 104.092 134.905 103.688 134.653C105.407 132.118 107.229 129.645 109.155 127.238C118.883 115.079 130.824 105.124 144.643 97.6508ZM97.6508 255.357C90.1765 241.538 85.6332 226.671 84.1452 211.17C82.7085 196.194 84.1676 181.257 88.4844 166.772C90.9338 158.55 94.235 150.711 98.3482 143.319C98.7573 143.568 99.1826 143.823 99.6244 144.084C108.173 149.564 121.698 159.8 131.044 174.447C141.917 191.49 144.062 209.793 137.422 228.864C129.425 248.273 124.713 265.74 123.883 279.454C123.689 282.651 123.717 285.517 123.922 288.089C113.26 278.892 104.434 267.899 97.6508 255.357ZM302.349 144.643C309.823 158.462 314.367 173.329 315.855 188.83C317.291 203.806 315.832 218.743 311.516 233.228C307.199 247.714 300.245 261.015 290.846 272.762C281.118 284.921 269.178 294.876 255.358 302.349C241.539 309.824 226.672 314.367 211.171 315.855C196.196 317.291 181.259 315.831 166.773 311.516C163.012 310.395 159.332 309.094 155.736 307.622C158.511 306.489 161.42 305.009 164.437 303.189C175.026 296.803 187.195 286.051 199.627 272.095C212.465 257.685 224.979 240.639 236.163 222.456C241.76 213.355 247.025 203.968 251.828 194.486C266.34 165.837 274.966 139.578 276.118 120.546C276.312 117.349 276.284 114.483 276.079 111.911C286.741 121.108 295.567 132.101 302.35 144.642L302.349 144.643Z" fill="black"/>
</svg>
